<svg xmlns="http://www.w3.org/2000/svg" width="2.8in" height="2.7in" viewBox="0 0 198.2 196.1"><circle cx="99.6" cy="98.6" r="44.2" fill="none" stroke="#fff" stroke-miterlimit="10" stroke-width="17.93"/><circle cx="159.5" cy="38.9" r="8" fill="#fff"/><path fill="none" stroke="#fff" stroke-miterlimit="10" stroke-width="17.93" d="M144.8 187.1H50.9s-24.1 1.3-36.6-27.3A65.6 65.6 0 0 1 9 133.6V61.7a59.5 59.5 0 0 1 9.4-32.6c5.5-8.4 13.8-16.5 26.4-19.3a41.1 41.1 0 0 1 8.6-.8h91.4a42.7 42.7 0 0 1 8.7.8c12.5 2.8 20.9 10.9 26.3 19.3a59.6 59.6 0 0 1 9.5 32.6v71.9a65.7 65.7 0 0 1-5.4 26.2c-12.5 28.6-36.6 27.3-36.6 27.3z"/></svg>